[h264 @ 0x55b7ef92ebc0] Reinit context to 1280x720, pix_fmt: yuv420p
Input #0, mov,mp4,m4a,3gp,3g2,mj2, from '/var/www/html/project/media/video/original/B6_ORE_22.45.mp4':
  Metadata:
    major_brand     : isom
    minor_version   : 512
    compatible_brands: isomiso2avc1mp41
    creation_time   : 2024-11-10T15:17:32.000000Z
  Duration: 00:00:14.28, start: 0.000000, bitrate: 2846 kb/s
    Stream #0:0(eng): Audio: aac (LC) (mp4a / 0x6134706D), 48000 Hz, stereo, fltp, 256 kb/s (default)
    Metadata:
      creation_time   : 2024-11-10T15:17:22.000000Z
      handler_name    : SoundHandle
    Stream #0:1(eng): Video: h264 (High), 1 reference frame (avc1 / 0x31637661), yuv420p(tv, bt709, left), 1280x720, 2583 kb/s, 24.72 fps, 24.75 tbr, 90k tbn, 48 tbc (default)
    Metadata:
      creation_time   : 2024-11-10T15:17:22.000000Z
      handler_name    : VideoHandle
Input #1, png_pipe, from '/var/www/html/project/static/images/templates/logo.png':
  Duration: N/A, bitrate: N/A
    Stream #1:0: Video: png, 1 reference frame, rgba(pc), 1920x1080 [SAR 2835:2835 DAR 16:9], 25 tbr, 25 tbn, 25 tbc
[h264 @ 0x55b7ef944c40] Reinit context to 1280x720, pix_fmt: yuv420p
Input #2, mov,mp4,m4a,3gp,3g2,mj2, from '/var/www/html/project/static/images/templates/Codino.mp4':
  Metadata:
    major_brand     : mp42
    minor_version   : 1
    compatible_brands: isommp41mp42
    creation_time   : 2021-07-11T07:02:58.000000Z
  Duration: 00:00:02.00, start: 0.000000, bitrate: 1007 kb/s
    Stream #2:0(ita): Audio: aac (LC) (mp4a / 0x6134706D), 44100 Hz, stereo, fltp, 102 kb/s (default)
    Metadata:
      creation_time   : 2021-07-11T07:02:58.000000Z
      handler_name    : Core Media Audio
    Stream #2:1(und): Video: h264 (High), 1 reference frame (avc1 / 0x31637661), yuv420p(tv, bt709, progressive, left), 1280x720 [SAR 1:1 DAR 16:9], 813 kb/s, 25 fps, 25 tbr, 25k tbn, 50k tbc (default)
    Metadata:
      creation_time   : 2021-07-11T07:02:58.000000Z
      handler_name    : Core Media Video
[Parsed_scale_0 @ 0x55b7ef96f3c0] w:1280 h:720 flags:'bilinear' interl:0
[Parsed_scale_2 @ 0x55b7ef946780] w:1280 h:720 flags:'bilinear' interl:0
[Parsed_scale_4 @ 0x55b7ef9940c0] w:1280 h:720 flags:'bilinear' interl:0
Stream mapping:
  Stream #0:0 (aac) -> concat:in0:a0
  Stream #0:1 (h264) -> scale
  Stream #1:0 (png) -> scale
  Stream #2:0 (aac) -> concat:in1:a0
  Stream #2:1 (h264) -> scale
  concat:out:v0 -> Stream #0:0 (libx264)
  concat:out:a0 -> Stream #0:1 (aac)
Press [q] to stop, [?] for help
[h264 @ 0x55b7efad1380] Reinit context to 1280x720, pix_fmt: yuv420p
[h264 @ 0x55b7efd3e880] Reinit context to 1280x720, pix_fmt: yuv420p
[Parsed_scale_0 @ 0x55b7f0c23fc0] w:1280 h:720 flags:'bilinear' interl:0
[Parsed_scale_2 @ 0x55b7efa87d80] w:1280 h:720 flags:'bilinear' interl:0
[Parsed_scale_4 @ 0x55b7f0c2dec0] w:1280 h:720 flags:'bilinear' interl:0
[graph 0 input from stream 0:1 @ 0x55b7f0c32700] w:1280 h:720 pixfmt:yuv420p tb:1/90000 fr:99/4 sar:0/1 sws_param:flags=2
[graph 0 input from stream 1:0 @ 0x55b7f0c33740] w:1920 h:1080 pixfmt:rgba tb:1/25 fr:25/1 sar:2835/2835 sws_param:flags=2
[graph 0 input from stream 2:1 @ 0x55b7f0c347c0] w:1280 h:720 pixfmt:yuv420p tb:1/25000 fr:25/1 sar:1/1 sws_param:flags=2
[graph_0_in_0_0 @ 0x55b7f0c35780] tb:1/48000 samplefmt:fltp samplerate:48000 chlayout:0x3
[graph_0_in_2_0 @ 0x55b7f0c368c0] tb:1/44100 samplefmt:fltp samplerate:44100 chlayout:0x3
[Parsed_concat_7 @ 0x55b7f0c30740] auto-inserting filter 'auto_resampler_0' between the filter 'graph_0_in_2_0' and the filter 'Parsed_concat_7'
[Parsed_scale_0 @ 0x55b7f0c23fc0] w:1280 h:720 fmt:yuv420p sar:0/1 -> w:1280 h:720 fmt:yuv420p sar:0/1 flags:0x2
[Parsed_setsar_1 @ 0x55b7efa87f00] w:1280 h:720 sar:0/1 dar:16/9 -> sar:1/1 dar:16/9
[Parsed_scale_2 @ 0x55b7efa87d80] w:1920 h:1080 fmt:rgba sar:2835/2835 -> w:1280 h:720 fmt:yuva420p sar:1/1 flags:0x2
[Parsed_setsar_3 @ 0x55b7f0c2d140] w:1280 h:720 sar:1/1 dar:16/9 -> sar:1/1 dar:16/9
[Parsed_overlay_6 @ 0x55b7f0c2f540] main w:1280 h:720 fmt:yuv420p overlay w:1280 h:720 fmt:yuva420p
[Parsed_overlay_6 @ 0x55b7f0c2f540] [framesync @ 0x55b7f0c2f6a8] Selected 1/90000 time base
[Parsed_overlay_6 @ 0x55b7f0c2f540] [framesync @ 0x55b7f0c2f6a8] Sync level 2
[Parsed_scale_4 @ 0x55b7f0c2dec0] w:1280 h:720 fmt:yuv420p sar:1/1 -> w:1280 h:720 fmt:yuv420p sar:1/1 flags:0x2
[Parsed_setsar_5 @ 0x55b7f0c2e9c0] w:1280 h:720 sar:1/1 dar:16/9 -> sar:1/1 dar:16/9
[auto_resampler_0 @ 0x55b7f0c3d840] ch:2 chl:stereo fmt:fltp r:44100Hz -> ch:2 chl:stereo fmt:fltp r:48000Hz
[libx264 @ 0x55b7ef9d3f40] using SAR=1/1
[libx264 @ 0x55b7ef9d3f40] using cpu capabilities: MMX2 SSE2Fast SSSE3 SSE4.2 AVX FMA3 BMI2 AVX2
[libx264 @ 0x55b7ef9d3f40] profile High, level 3.1
[libx264 @ 0x55b7ef9d3f40] 264 - core 155 r2917 0a84d98 - H.264/MPEG-4 AVC codec - Copyleft 2003-2018 - http://www.videolan.org/x264.html - options: cabac=1 ref=1 deblock=1:0:0 analyse=0x3:0x113 me=hex subme=2 psy=1 psy_rd=1.00:0.00 mixed_ref=0 me_range=16 chroma_me=1 trellis=0 8x8dct=1 cqm=0 deadzone=21,11 fast_pskip=1 chroma_qp_offset=0 threads=22 lookahead_threads=5 sliced_threads=0 nr=0 decimate=1 interlaced=0 bluray_compat=0 constrained_intra=0 bframes=3 b_pyramid=2 b_adapt=1 b_bias=0 direct=1 weightb=1 open_gop=0 weightp=1 keyint=250 keyint_min=24 scenecut=40 intra_refresh=0 rc_lookahead=10 rc=crf mbtree=1 crf=18.0 qcomp=0.60 qpmin=0 qpmax=69 qpstep=4 ip_ratio=1.40 aq=1:1.00
Output #0, mp4, to '/var/www/html/project/media/video/watermarks/B6_ORE_22.45.mp4':
  Metadata:
    major_brand     : isom
    minor_version   : 512
    compatible_brands: isomiso2avc1mp41
    encoder         : Lavf58.29.100
    Stream #0:0: Video: h264 (libx264), 1 reference frame (avc1 / 0x31637661), yuv420p(progressive), 1280x720 [SAR 1:1 DAR 16:9], q=-1--1, 24.75 fps, 12672 tbn, 24.75 tbc (default)
    Metadata:
      encoder         : Lavc58.54.100 libx264
    Side data:
      cpb: bitrate max/min/avg: 0/0/0 buffer size: 0 vbv_delay: -1
    Stream #0:1: Audio: aac (LC) (mp4a / 0x6134706D), 48000 Hz, stereo, fltp, delay 1024, 128 kb/s (default)
    Metadata:
      encoder         : Lavc58.54.100 aac
[Parsed_concat_7 @ 0x55b7f0c30740] EOF on in0:a0, 1 streams left in segment.
[Parsed_overlay_6 @ 0x55b7f0c2f540] [framesync @ 0x55b7f0c2f6a8] Sync level 0
[Parsed_concat_7 @ 0x55b7f0c30740] EOF on in0:v0, 0 streams left in segment.
[Parsed_concat_7 @ 0x55b7f0c30740] Segment finished at pts=14282471
[Parsed_concat_7 @ 0x55b7f0c30740] EOF on in1:v0, 1 streams left in segment.
[Parsed_concat_7 @ 0x55b7f0c30740] EOF on in1:a0, 0 streams left in segment.
[Parsed_concat_7 @ 0x55b7f0c30740] Segment finished at pts=16301158
No more output streams to write to, finishing.
frame=  403 fps= 88 q=-1.0 Lsize=    5684kB time=00:00:16.32 bitrate=2852.9kbits/s speed=3.55x    
[AVIOContext @ 0x55b7ef92b440] Statistics: 0 seeks, 9 writeouts
video:5410kB audio:261kB subtitle:0kB other streams:0kB global headers:0kB muxing overhead: 0.234276%
Input file #0 (/var/www/html/project/media/video/original/B6_ORE_22.45.mp4):
  Input stream #0:0 (audio): 668 packets read (456092 bytes); 668 frames decoded (684032 samples); 
  Input stream #0:1 (video): 353 packets read (4612833 bytes); 353 frames decoded; 
  Total: 1021 packets (5068925 bytes) demuxed
Input file #1 (/var/www/html/project/static/images/templates/logo.png):
  Input stream #1:0 (video): 1 packets read (111578 bytes); 1 frames decoded; 
  Total: 1 packets (111578 bytes) demuxed
Input file #2 (/var/www/html/project/static/images/templates/Codino.mp4):
  Input stream #2:0 (audio): 89 packets read (26579 bytes); 87 frames decoded (89024 samples); 
  Input stream #2:1 (video): 50 packets read (203365 bytes); 50 frames decoded; 
  Total: 139 packets (229944 bytes) demuxed
Output file #0 (/var/www/html/project/media/video/watermarks/B6_ORE_22.45.mp4):
  Output stream #0:0 (video): 403 frames encoded; 403 packets muxed (5539354 bytes); 
  Output stream #0:1 (audio): 766 frames encoded (783424 samples); 767 packets muxed (267464 bytes); 
  Total: 1170 packets (5806818 bytes) muxed
[AVIOContext @ 0x55b7ef947cc0] Statistics: 2 seeks, 26 writeouts
[libx264 @ 0x55b7ef9d3f40] frame I:2     Avg QP:14.65  size: 54608
[libx264 @ 0x55b7ef9d3f40] frame P:128   Avg QP:15.24  size: 21993
[libx264 @ 0x55b7ef9d3f40] frame B:273   Avg QP:17.74  size:  9576
[libx264 @ 0x55b7ef9d3f40] consecutive B-frames:  7.9%  4.5%  2.2% 85.4%
[libx264 @ 0x55b7ef9d3f40] mb I  I16..4: 22.2% 39.8% 37.9%
[libx264 @ 0x55b7ef9d3f40] mb P  I16..4: 13.1% 23.7%  3.3%  P16..4: 19.2% 11.6%  6.6%  0.0%  0.0%    skip:22.6%
[libx264 @ 0x55b7ef9d3f40] mb B  I16..4:  3.9%  3.8%  0.2%  B16..8: 30.4% 14.5%  1.4%  direct:14.3%  skip:31.5%  L0:46.6% L1:40.8% BI:12.7%
[libx264 @ 0x55b7ef9d3f40] 8x8 transform intra:55.5% inter:36.2%
[libx264 @ 0x55b7ef9d3f40] coded y,uvDC,uvAC intra: 45.5% 55.0% 10.5% inter: 13.7% 24.6% 0.6%
[libx264 @ 0x55b7ef9d3f40] i16 v,h,dc,p: 45% 25% 21%  8%
[libx264 @ 0x55b7ef9d3f40] i8 v,h,dc,ddl,ddr,vr,hd,vl,hu: 22% 30% 23%  2%  5%  8%  4%  3%  4%
[libx264 @ 0x55b7ef9d3f40] i4 v,h,dc,ddl,ddr,vr,hd,vl,hu: 29% 26% 18%  4%  6%  7%  4%  3%  4%
[libx264 @ 0x55b7ef9d3f40] i8c dc,h,v,p: 54% 23% 19%  4%
[libx264 @ 0x55b7ef9d3f40] Weighted P-Frames: Y:4.7% UV:0.0%
[libx264 @ 0x55b7ef9d3f40] kb/s:2721.23
[aac @ 0x55b7efad4480] Qavg: 3833.836
[AVIOContext @ 0x55b7ef9343c0] Statistics: 5126793 bytes read, 2 seeks
[AVIOContext @ 0x55b7ef92f7c0] Statistics: 111578 bytes read, 0 seeks
[AVIOContext @ 0x55b7ef959b40] Statistics: 1530915 bytes read, 42 seeks
